<svg width="878" height="560" viewBox="0 0 878 560" fill="none" xmlns="http://www.w3.org/2000/svg">
  <defs>
    <linearGradient id="dashGrad" x1="0%" y1="0%" x2="100%" y2="100%">
      <stop offset="0%" style="stop-color:#6366F1;stop-opacity:0.2" />
      <stop offset="100%" style="stop-color:#8B5CF6;stop-opacity:0.2" />
    </linearGradient>
  </defs>
  
  <!-- Dashboard Background -->
  <rect width="878" height="560" rx="20" fill="#0A0A0F" stroke="url(#dashGrad)" stroke-width="2"/>
  
  <!-- Header -->
  <rect x="40" y="40" width="200" height="30" rx="5" fill="#6366F1" opacity="0.3"/>
  <rect x="260" y="40" width="150" height="30" rx="5" fill="#8B5CF6" opacity="0.2"/>
  
  <!-- Main Card 1 -->
  <rect x="40" y="100" width="380" height="200" rx="15" fill="#1a1a2e" stroke="#6366F1" stroke-width="1"/>
  <circle cx="100" cy="150" r="30" fill="#6366F1" opacity="0.3"/>
  <rect x="150" y="130" width="200" height="15" rx="5" fill="#8B5CF6" opacity="0.4"/>
  <rect x="150" y="160" width="150" height="10" rx="5" fill="#06B6D4" opacity="0.3"/>
  <path d="M 80 220 L 100 240 L 140 200" stroke="#06B6D4" stroke-width="3" fill="none" stroke-linecap="round"/>
  
  <!-- Main Card 2 -->
  <rect x="460" y="100" width="380" height="200" rx="15" fill="#1a1a2e" stroke="#8B5CF6" stroke-width="1"/>
  <rect x="500" y="130" width="300" height="20" rx="5" fill="#6366F1" opacity="0.4"/>
  <rect x="500" y="170" width="250" height="15" rx="5" fill="#8B5CF6" opacity="0.3"/>
  <rect x="500" y="200" width="200" height="15" rx="5" fill="#06B6D4" opacity="0.3"/>
  
  <!-- Progress Bars -->
  <rect x="40" y="330" width="798" height="40" rx="10" fill="#1a1a2e"/>
  <rect x="45" y="335" width="600" height="30" rx="8" fill="url(#dashGrad)"/>
  
  <!-- Bottom Stats -->
  <rect x="40" y="400" width="180" height="120" rx="10" fill="#1a1a2e" stroke="#6366F1" stroke-width="1"/>
  <rect x="250" y="400" width="180" height="120" rx="10" fill="#1a1a2e" stroke="#8B5CF6" stroke-width="1"/>
  <rect x="460" y="400" width="180" height="120" rx="10" fill="#1a1a2e" stroke="#06B6D4" stroke-width="1"/>
  <rect x="670" y="400" width="170" height="120" rx="10" fill="#1a1a2e" stroke="#6366F1" stroke-width="1"/>
</svg>
